<svg xmlns="http://www.w3.org/2000/svg" xmlns:xlink="http://www.w3.org/1999/xlink" width="375" viewBox="0 0 375 375" height="375" version="1.0"><defs><g id="b"><path d="M -4.320312 -3.378906 C -3.933594 -3.148438 -3.503906 -3.140625 -3.085938 -3.199219 C -2.527344 -3.277344 -1.855469 -3.585938 -1.226562 -4.171875 C -0.160156 -5.175781 1.460938 -7.328125 3.691406 -10.703125 C 6.035156 -14.308594 7.703125 -16.609375 8.683594 -17.742188 C 9.601562 -18.796875 10.332031 -19.1875 10.789062 -18.964844 C 10.949219 -18.84375 11.128906 -18.585938 11.328125 -18.1875 C 11.464844 -17.707031 11.535156 -17.21875 11.601562 -16.730469 C 11.589844 -15.800781 12.007812 -14.863281 12.855469 -13.914062 C 13.628906 -12.957031 14.335938 -12.484375 15.046875 -12.515625 C 15.753906 -12.542969 16.871094 -13.199219 18.332031 -14.472656 C 19.71875 -15.734375 22.078125 -18.203125 25.417969 -21.808594 C 27.335938 -23.855469 29.085938 -25.597656 30.582031 -27.089844 C 32.09375 -28.515625 32.992188 -29.210938 33.210938 -29.171875 C 33.441406 -29.058594 33.636719 -28.660156 33.886719 -27.914062 C 34.074219 -27.085938 34.222656 -26.035156 34.398438 -24.78125 C 34.632812 -22.105469 35.046875 -20.171875 35.792969 -18.921875 C 36.546875 -17.605469 37.59375 -16.753906 39.066406 -16.394531 C 40.550781 -15.960938 42.257812 -15.988281 44.042969 -16.453125 C 45.761719 -16.90625 48.105469 -17.949219 51.011719 -19.570312 C 52.199219 -20.234375 53.507812 -21.058594 54.796875 -22.023438 C 56.09375 -22.917969 57.394531 -23.8125 58.613281 -24.769531 C 60.859375 -26.507812 62.628906 -28.113281 63.988281 -29.585938 C 64.796875 -30.410156 65.207031 -31.039062 65.15625 -31.386719 C 65.066406 -31.515625 64.839844 -31.628906 64.550781 -31.65625 C 64.339844 -31.628906 63.410156 -31.140625 61.675781 -30.328125 C 59.9375 -29.511719 57.953125 -28.449219 55.765625 -27.289062 C 49.605469 -24 45.460938 -22.0625 43.355469 -21.339844 C 41.25 -20.617188 39.953125 -20.71875 39.519531 -21.796875 C 39.410156 -22.066406 39.320312 -22.695312 39.171875 -23.742188 C 39.035156 -24.71875 38.878906 -25.835938 38.859375 -26.972656 C 38.695312 -29.65625 38.359375 -31.53125 37.773438 -32.660156 C 37.128906 -33.710938 36.191406 -34.289062 34.898438 -34.390625 C 33.332031 -34.386719 31.773438 -33.8125 30.15625 -32.65625 C 28.546875 -31.433594 26.039062 -29.015625 22.703125 -25.414062 C 20.230469 -22.714844 18.484375 -20.972656 17.59375 -20.207031 C 16.714844 -19.371094 16.105469 -19.144531 15.835938 -19.535156 C 15.660156 -19.792969 15.480469 -20.050781 15.421875 -20.472656 C 15.230469 -20.800781 15.191406 -21.082031 15.152344 -21.359375 C 15.054688 -22.058594 14.597656 -22.777344 13.792969 -23.445312 C 12.925781 -24.035156 12.027344 -24.339844 11.171875 -24.359375 C 10.113281 -24.28125 8.855469 -23.605469 7.457031 -22.414062 C 5.996094 -21.140625 4.46875 -19.359375 2.796875 -17.058594 C 2.007812 -16.089844 1.339844 -15.285156 0.847656 -14.71875 C 0.21875 -14.132812 -0.109375 -13.941406 -0.140625 -14.152344 C -0.25 -14.421875 -0.117188 -15.507812 0.257812 -17.410156 C 0.570312 -19.234375 1.050781 -21.371094 1.566406 -23.792969 C 1.808594 -25.109375 2.121094 -26.433594 2.5 -27.769531 C 2.8125 -29.09375 3.144531 -30.28125 3.546875 -31.476562 C 4.210938 -33.847656 4.480469 -35.453125 4.355469 -36.363281 C 4.265625 -36.988281 3.9375 -37.300781 3.378906 -37.222656 C 3.167969 -37.191406 2.96875 -37.09375 2.839844 -37.003906 C 2.5 -36.882812 1.847656 -35.4375 0.875 -32.738281 C -0.0859375 -29.96875 -1.089844 -26.976562 -2.054688 -23.710938 C -2.585938 -21.925781 -3.058594 -20.222656 -3.53125 -18.515625 C -4.003906 -16.8125 -4.4375 -15.328125 -4.679688 -14.011719 C -5.324219 -11 -5.625 -8.609375 -5.511719 -6.773438 C -5.523438 -6.34375 -5.460938 -5.925781 -5.414062 -5.574219 C -5.246094 -4.390625 -4.929688 -3.648438 -4.320312 -3.378906 Z M -4.320312 -3.378906"/></g><g id="c"><path d="M 12.167969 -24.855469 C 13.03125 -26.332031 13.140625 -27.558594 12.425781 -28.59375 C 11.730469 -29.496094 10.523438 -29.964844 8.96875 -29.890625 L 8.480469 -29.820312 L 7.78125 -29.722656 C 7.371094 -29.59375 6.960938 -29.464844 6.554688 -29.335938 C 4.527344 -28.550781 2.570312 -27.28125 0.832031 -25.46875 C -0.976562 -23.648438 -2.339844 -21.675781 -3.269531 -19.691406 C -3.832031 -18.617188 -4.179688 -17.570312 -4.324219 -16.554688 C -4.484375 -15.675781 -4.527344 -14.957031 -4.429688 -14.261719 L -4.359375 -13.769531 C -4.050781 -12.605469 -3.476562 -11.546875 -2.5 -10.6875 C -1.65625 -9.738281 -0.558594 -9.035156 0.777344 -8.65625 C 2.199219 -8.144531 4.214844 -8 6.75 -8.214844 L 7.585938 -8.332031 C 9.820312 -8.644531 12.285156 -9.347656 14.832031 -10.488281 C 16.167969 -11.105469 17.636719 -11.8125 19.144531 -12.734375 C 20.582031 -13.648438 22.089844 -14.574219 23.507812 -15.628906 C 26.105469 -17.417969 28.332031 -19.296875 30.203125 -21.199219 C 32.082031 -23.03125 32.972656 -24.292969 32.933594 -25.070312 L 32.914062 -25.210938 C 32.894531 -25.351562 32.792969 -25.550781 32.773438 -25.691406 C 32.683594 -25.820312 32.59375 -25.949219 32.59375 -25.949219 C 32.457031 -25.929688 31.398438 -25.355469 29.421875 -24.222656 C 27.375 -23.078125 25.007812 -21.679688 22.332031 -19.949219 C 16.789062 -16.320312 12.40625 -14.066406 9.09375 -13.316406 C 5.789062 -12.492188 3.019531 -12.460938 0.835938 -13.292969 C -0.0820312 -13.734375 -0.597656 -14.371094 -0.785156 -15.199219 C -1.035156 -15.949219 -0.890625 -16.964844 -0.359375 -18.25 C -0.160156 -18.847656 0.199219 -19.328125 0.71875 -19.683594 C 1.179688 -19.964844 1.996094 -20.21875 3.175781 -20.457031 C 5.25 -20.890625 7.15625 -21.515625 8.894531 -22.332031 C 10.558594 -23.132812 11.660156 -23.929688 12.167969 -24.855469 Z M 5.609375 -25.429688 C 6.328125 -25.886719 6.925781 -26.183594 7.476562 -26.332031 C 7.894531 -26.390625 8.164062 -26.5 8.441406 -26.539062 L 8.652344 -26.570312 C 8.871094 -26.527344 9.019531 -26.480469 9.039062 -26.339844 C 9.058594 -26.199219 9.011719 -26.050781 8.898438 -25.820312 C 8.550781 -25.273438 8.25 -24.875 7.859375 -24.605469 C 6.691406 -23.800781 5.695312 -23.304688 5.003906 -23.136719 C 4.386719 -22.976562 3.96875 -22.917969 3.6875 -22.878906 L 3.476562 -22.851562 C 3.269531 -22.820312 3.1875 -22.878906 3.167969 -23.019531 C 3.148438 -23.160156 3.269531 -23.320312 3.578125 -23.648438 C 4.070312 -24.214844 4.769531 -24.8125 5.609375 -25.429688 Z M 5.609375 -25.429688"/></g><g id="d"><path d="M 7.066406 -25.285156 C 6.964844 -25.511719 6.8125 -25.671875 6.609375 -25.761719 C 6.492188 -25.742188 6.359375 -25.78125 6.242188 -25.757812 C 6 -25.71875 5.769531 -25.617188 5.480469 -25.503906 C 5.25 -25.402344 5.082031 -25.3125 4.839844 -25.269531 C 4.621094 -25.109375 4.332031 -24.996094 4.101562 -24.894531 C 1.644531 -23.726562 -0.347656 -22.019531 -1.9375 -19.765625 C -3.515625 -17.453125 -4.046875 -15.503906 -3.453125 -13.875 C -2.953125 -12.414062 -1.988281 -11.839844 -0.425781 -12.109375 C 1.074219 -12.371094 2.75 -13.402344 4.664062 -15.21875 C 5.300781 -15.824219 5.898438 -16.296875 6.449219 -16.703125 C 6.996094 -17.105469 7.277344 -17.277344 7.40625 -17.238281 C 7.546875 -17.140625 7.570312 -16.648438 7.476562 -15.765625 C 7.402344 -14.765625 7.277344 -13.691406 7.117188 -12.488281 C 6.75 -10.324219 6.386719 -8.835938 6.03125 -8.035156 C 5.617188 -7.21875 4.660156 -5.941406 3.230469 -4.207031 C -0.730469 0.433594 -3.996094 5.144531 -6.511719 9.910156 C -9.144531 14.695312 -10.722656 18.804688 -11.300781 22.242188 C -11.621094 23.96875 -11.683594 25.402344 -11.476562 26.605469 C -11.453125 26.722656 -11.433594 26.84375 -11.351562 26.953125 C -11.125 28.273438 -10.46875 29.210938 -9.402344 29.648438 C -8.777344 30.035156 -8.027344 30.089844 -7.125 29.933594 C -6.886719 29.890625 -6.585938 29.839844 -6.234375 29.71875 C -5.003906 29.320312 -3.839844 28.558594 -2.78125 27.511719 C -0.953125 25.585938 0.914062 22.417969 2.738281 17.957031 C 4.574219 13.558594 6.214844 8.386719 7.601562 2.457031 C 7.949219 0.910156 8.363281 -0.644531 8.722656 -2.128906 C 9.09375 -3.554688 9.429688 -4.476562 9.597656 -4.941406 C 9.765625 -5.402344 10.738281 -6.558594 12.449219 -8.464844 C 14.125 -10.238281 16.015625 -12.175781 18.066406 -14.261719 C 19.441406 -15.613281 20.765625 -16.894531 22.089844 -18.175781 C 23.363281 -19.382812 24.5 -20.324219 25.367188 -21.03125 C 25.90625 -21.496094 26.433594 -22.019531 26.851562 -22.460938 C 27.160156 -22.824219 27.359375 -23.105469 27.328125 -23.285156 C 27.195312 -23.695312 26.144531 -23.328125 24.226562 -22.253906 C 22.320312 -21.121094 19.835938 -19.390625 16.886719 -17.148438 C 15.289062 -16.007812 13.914062 -15.027344 12.816406 -14.21875 C 11.660156 -13.398438 11.050781 -12.984375 10.980469 -13.035156 C 10.859375 -13.011719 10.855469 -13.382812 10.851562 -14.125 C 10.867188 -14.746094 10.855469 -15.546875 10.949219 -16.429688 C 11.066406 -18.246094 11.097656 -19.859375 10.976562 -21.261719 C 10.859375 -22.664062 10.460938 -23.519531 9.859375 -23.789062 C 9.1875 -24.105469 8.378906 -23.777344 7.539062 -22.890625 C 6.605469 -21.863281 5.332031 -20.652344 3.726562 -19.199219 C 2.28125 -17.898438 1.195312 -17.03125 0.464844 -16.59375 C -0.3125 -16.089844 -0.722656 -15.957031 -0.761719 -16.195312 C -0.988281 -16.777344 -0.75 -17.558594 -0.015625 -18.675781 C 0.65625 -19.78125 1.53125 -20.800781 2.609375 -21.730469 C 3.148438 -22.191406 3.683594 -22.65625 4.292969 -23.070312 C 4.851562 -23.414062 5.410156 -23.761719 5.929688 -23.972656 C 6.402344 -24.117188 6.742188 -24.300781 6.949219 -24.519531 C 7.097656 -24.734375 7.117188 -24.984375 7.066406 -25.285156 Z M -6.683594 20.332031 C -6.382812 19.226562 -5.867188 17.902344 -5.136719 16.414062 C -4.464844 14.9375 -3.734375 13.449219 -2.878906 11.941406 C -1.734375 9.640625 -0.53125 7.636719 0.636719 5.828125 C 1.808594 4.015625 2.574219 3.078125 2.996094 3.007812 L 3.113281 2.984375 C 3.195312 3.097656 3.265625 3.144531 3.285156 3.265625 C 3.371094 3.746094 3.136719 4.898438 2.585938 6.726562 C 1.878906 9.074219 1.003906 11.515625 0.0273438 14.097656 C -0.660156 15.824219 -1.363281 17.492188 -2.035156 18.96875 C -2.765625 20.457031 -3.371094 21.613281 -3.867188 22.316406 C -5.257812 24.289062 -6.253906 25.328125 -6.855469 25.433594 C -7.035156 25.464844 -7.152344 25.484375 -7.234375 25.375 C -7.375 25.273438 -7.476562 25.046875 -7.519531 24.804688 C -7.652344 24.023438 -7.414062 22.558594 -6.683594 20.332031 Z M -6.683594 20.332031"/></g><g id="e"><path d="M 9.832031 -21.804688 C 10.535156 -23.101562 10.597656 -24.164062 9.953125 -25.042969 C 9.328125 -25.796875 8.273438 -26.171875 6.929688 -26.0625 L 6.507812 -25.992188 L 5.910156 -25.886719 C 5.558594 -25.765625 5.210938 -25.640625 4.859375 -25.519531 C 3.128906 -24.789062 1.472656 -23.636719 0.0234375 -22.023438 C -1.492188 -20.398438 -2.613281 -18.660156 -3.363281 -16.921875 C -3.816406 -15.976562 -4.09375 -15.0625 -4.1875 -14.179688 C -4.300781 -13.417969 -4.320312 -12.796875 -4.214844 -12.195312 L -4.140625 -11.777344 C -3.84375 -10.777344 -3.320312 -9.878906 -2.453125 -9.164062 C -1.695312 -8.367188 -0.730469 -7.789062 0.433594 -7.496094 C 1.679688 -7.09375 3.421875 -7.023438 5.605469 -7.28125 L 6.324219 -7.402344 C 8.246094 -7.738281 10.355469 -8.410156 12.523438 -9.46875 C 13.664062 -10.035156 14.910156 -10.683594 16.1875 -11.523438 C 17.40625 -12.351562 18.683594 -13.191406 19.878906 -14.140625 C 22.074219 -15.757812 23.945312 -17.445312 25.507812 -19.136719 C 27.082031 -20.769531 27.816406 -21.886719 27.761719 -22.558594 L 27.742188 -22.679688 C 27.722656 -22.796875 27.628906 -22.96875 27.609375 -23.089844 C 27.527344 -23.199219 27.445312 -23.308594 27.445312 -23.308594 C 27.328125 -23.285156 26.429688 -22.761719 24.75 -21.726562 C 23.015625 -20.683594 21.007812 -19.410156 18.746094 -17.84375 C 14.054688 -14.554688 10.332031 -12.488281 7.492188 -11.75 C 4.660156 -10.949219 2.265625 -10.84375 0.359375 -11.503906 C -0.445312 -11.859375 -0.910156 -12.398438 -1.09375 -13.109375 C -1.328125 -13.75 -1.234375 -14.628906 -0.808594 -15.753906 C -0.652344 -16.277344 -0.355469 -16.699219 0.0820312 -17.023438 C 0.472656 -17.277344 1.171875 -17.519531 2.183594 -17.757812 C 3.964844 -18.191406 5.59375 -18.78125 7.070312 -19.53125 C 8.488281 -20.273438 9.417969 -20.988281 9.832031 -21.804688 Z M 4.148438 -22.117188 C 4.757812 -22.535156 5.265625 -22.808594 5.738281 -22.949219 C 6.097656 -23.011719 6.328125 -23.113281 6.566406 -23.15625 L 6.746094 -23.1875 C 6.9375 -23.160156 7.070312 -23.121094 7.089844 -23 C 7.109375 -22.878906 7.070312 -22.75 6.980469 -22.546875 C 6.695312 -22.066406 6.445312 -21.710938 6.117188 -21.46875 C 5.128906 -20.742188 4.28125 -20.285156 3.691406 -20.121094 C 3.160156 -19.96875 2.800781 -19.90625 2.558594 -19.863281 L 2.378906 -19.832031 C 2.199219 -19.800781 2.128906 -19.851562 2.109375 -19.972656 C 2.089844 -20.09375 2.1875 -20.234375 2.445312 -20.523438 C 2.855469 -21.027344 3.441406 -21.5625 4.148438 -22.117188 Z M 4.148438 -22.117188"/></g><g id="f"><path d="M -2.867188 -8.347656 C -2.503906 -8.039062 -2.0625 -7.992188 -1.582031 -8.074219 C -1.222656 -8.136719 -0.824219 -8.332031 -0.386719 -8.65625 C 0.550781 -9.3125 1.617188 -10.671875 2.886719 -12.621094 C 5.863281 -17.21875 8.175781 -20.652344 9.863281 -23.046875 C 11.5625 -25.382812 12.488281 -26.46875 12.6875 -26.382812 C 12.828125 -26.28125 12.914062 -25.800781 12.9375 -24.941406 C 12.964844 -24.078125 12.960938 -23.027344 12.90625 -21.902344 C 12.746094 -18.90625 12.800781 -16.8125 13.148438 -15.511719 C 13.375 -14.191406 14.042969 -13.195312 15.03125 -12.5 C 16.167969 -11.644531 17.722656 -11.605469 19.582031 -12.296875 C 21.378906 -12.980469 23.625 -14.296875 26.378906 -16.257812 C 29.230469 -18.359375 31.875 -20.238281 34.179688 -21.9375 C 36.492188 -23.574219 37.847656 -24.675781 38.207031 -25.109375 C 36.996094 -24.960938 35.753906 -24.621094 34.484375 -24.09375 C 33.167969 -23.492188 31.859375 -22.835938 30.5 -22.105469 C 28.023438 -20.6875 25.628906 -19.15625 23.292969 -17.640625 C 20.960938 -16.121094 19.0625 -15.300781 17.589844 -15.230469 C 16.957031 -15.304688 16.53125 -15.976562 16.304688 -17.296875 C 16.09375 -18.496094 16.042969 -20.21875 16.28125 -22.425781 C 16.375 -23.308594 16.378906 -24.359375 16.371094 -25.472656 C 16.304688 -26.574219 16.28125 -27.433594 16.15625 -28.15625 C 15.988281 -29.117188 15.742188 -29.816406 15.550781 -30.214844 C 15.308594 -30.546875 14.894531 -30.785156 14.242188 -30.980469 C 13.921875 -31.046875 13.613281 -31.054688 13.25 -30.992188 C 12.410156 -30.847656 11.523438 -30.261719 10.625 -29.363281 C 9.261719 -27.953125 7.105469 -25.042969 4.207031 -20.707031 C 1.996094 -17.417969 0.316406 -14.960938 -0.753906 -13.292969 C -0.835938 -14.824219 -0.910156 -15.984375 -0.925781 -16.785156 C -1.125 -19.722656 -1.246094 -21.492188 -1.363281 -22.15625 C -1.535156 -22.804688 -1.839844 -23.125 -2.257812 -23.050781 C -2.621094 -22.988281 -2.9375 -22.316406 -3.167969 -21.160156 C -3.453125 -19.9375 -3.582031 -18.554688 -3.695312 -17.050781 C -3.851562 -15.105469 -3.839844 -13.25 -3.660156 -11.488281 C -3.675781 -10.867188 -3.582031 -10.328125 -3.507812 -9.90625 C -3.363281 -9.066406 -3.148438 -8.546875 -2.867188 -8.347656 Z M -2.867188 -8.347656"/></g><g id="g"><path d="M 4.453125 -29.285156 C 4.230469 -29.863281 3.886719 -30.421875 3.421875 -30.960938 C 2.957031 -31.5 2.425781 -31.71875 1.824219 -31.613281 C 0.746094 -31.425781 -0.421875 -30.667969 -1.617188 -29.347656 C -2.871094 -28.015625 -3.753906 -26.316406 -4.332031 -24.300781 C -4.929688 -22.402344 -5.113281 -20.949219 -4.925781 -19.867188 L -4.914062 -19.808594 C -4.726562 -18.726562 -4.199219 -17.828125 -3.203125 -17.074219 C -2.539062 -16.445312 -1.925781 -16.121094 -1.421875 -16.082031 C -0.910156 -15.984375 -0.0625 -16.070312 1.191406 -16.347656 C 1.96875 -16.484375 2.910156 -16.769531 4.019531 -17.148438 C 5.070312 -17.515625 5.929688 -17.910156 6.609375 -18.277344 C 8.035156 -18.957031 9.257812 -19.414062 10.195312 -19.703125 C 11.085938 -19.917969 11.585938 -19.882812 11.648438 -19.519531 C 11.671875 -19.402344 11.335938 -18.476562 10.644531 -16.75 C 9.957031 -15.023438 9.125 -13.023438 8.160156 -10.753906 C 7.140625 -8.410156 6.210938 -6.269531 5.445312 -4.28125 C 4.675781 -2.292969 4.222656 -0.976562 4.066406 -0.457031 C 3.78125 0.769531 3.777344 1.820312 4.175781 2.679688 C 4.511719 3.546875 5.09375 4.066406 5.988281 4.21875 C 6.1875 4.308594 6.511719 4.378906 7.011719 4.414062 C 7.082031 4.464844 7.203125 4.445312 7.382812 4.414062 C 7.800781 4.339844 8.441406 4.105469 9.21875 3.597656 C 9.789062 3.316406 10.457031 2.890625 11.214844 2.265625 C 11.996094 1.757812 12.910156 0.980469 13.988281 0.0507812 C 15.003906 -0.867188 16.367188 -2.277344 18.019531 -4.171875 C 19.671875 -6.066406 21.410156 -8.160156 23.128906 -10.375 C 24.800781 -12.519531 26.410156 -14.652344 27.960938 -16.777344 C 29.449219 -18.890625 30.699219 -20.59375 31.574219 -21.980469 C 32.011719 -22.675781 32.335938 -23.289062 32.625 -23.769531 C 32.8125 -24.113281 32.890625 -24.375 32.871094 -24.492188 C 32.871094 -24.492188 32.800781 -24.542969 32.789062 -24.605469 C 32.648438 -24.703125 32.367188 -24.53125 31.929688 -24.207031 C 31.441406 -23.8125 30.277344 -22.683594 28.496094 -20.828125 C 27.558594 -19.800781 26.292969 -18.53125 24.84375 -16.917969 C 23.328125 -15.296875 21.496094 -13.371094 19.296875 -11.074219 C 16.53125 -8.121094 14.121094 -5.597656 12.0625 -3.574219 C 9.949219 -1.476562 8.753906 -0.527344 8.53125 -0.734375 C 8.390625 -0.835938 8.578125 -1.546875 9.070312 -2.992188 C 9.570312 -4.378906 10.222656 -5.976562 11.070312 -7.855469 C 11.863281 -9.722656 12.5625 -11.390625 13.175781 -12.859375 C 13.738281 -14.253906 14.199219 -15.507812 14.574219 -16.5625 C 15.222656 -18.53125 15.464844 -19.996094 15.359375 -20.96875 C 15.203125 -21.867188 14.695312 -22.644531 13.972656 -23.261719 C 13.265625 -23.757812 12.3125 -23.902344 10.980469 -23.734375 C 9.601562 -23.496094 7.730469 -22.863281 5.3125 -21.824219 C 4.273438 -21.398438 3.523438 -21.082031 3.175781 -20.960938 C 2.714844 -20.757812 2.476562 -20.714844 2.394531 -20.824219 C 2.253906 -20.925781 2.34375 -21.125 2.710938 -21.5 C 3.019531 -21.863281 3.375 -22.292969 3.773438 -22.859375 C 4.746094 -24.386719 5.148438 -25.632812 5.023438 -26.722656 C 4.84375 -27.746094 4.699219 -28.585938 4.453125 -29.285156 Z M -1.132812 -22.257812 C -1.097656 -23.128906 -0.722656 -24.183594 -0.078125 -25.46875 C 0.535156 -26.566406 1.042969 -27.210938 1.523438 -27.292969 L 1.582031 -27.304688 C 1.640625 -27.3125 1.710938 -27.265625 1.734375 -27.144531 C 1.765625 -26.964844 1.695312 -26.640625 1.636719 -26.261719 C 1.390625 -25.539062 1.148438 -24.816406 0.769531 -24.132812 C 0.441406 -23.519531 0.09375 -23.023438 -0.210938 -22.664062 C -0.410156 -22.382812 -0.640625 -22.277344 -0.820312 -22.25 C -0.929688 -22.167969 -1.050781 -22.144531 -1.132812 -22.257812 Z M -1.132812 -22.257812"/></g><g id="h"><path d="M 16.464844 -26.726562 C 16.34375 -26.703125 16.214844 -26.742188 16.144531 -26.792969 C 16.023438 -26.773438 15.953125 -26.820312 15.832031 -26.800781 L 15.773438 -26.792969 C 15.472656 -26.738281 15.132812 -26.554688 14.792969 -26.375 C 14.34375 -26.109375 13.734375 -25.695312 13.027344 -25.140625 C 11.941406 -24.273438 10.992188 -23.675781 10.292969 -23.429688 C 9.605469 -23.125 8.242188 -22.765625 6.320312 -22.433594 C 4.589844 -22.070312 3.28125 -21.78125 2.460938 -21.515625 C 1.589844 -21.179688 0.800781 -20.734375 0.0820312 -20.238281 C -1.292969 -19.257812 -2.457031 -18.128906 -3.433594 -16.972656 C -4.457031 -15.742188 -5.011719 -14.65625 -5.214844 -13.695312 C -5.390625 -12.921875 -5.429688 -12.421875 -5.386719 -12.179688 L -5.375 -12.121094 C -5.324219 -11.820312 -5.140625 -11.480469 -4.699219 -11.0625 C -3.769531 -9.984375 -2.046875 -10.035156 0.359375 -11.132812 C 2.777344 -12.171875 5.859375 -14.375 9.667969 -17.753906 C 10.742188 -18.683594 11.710938 -19.53125 12.515625 -20.226562 C 13.324219 -20.925781 13.761719 -21.246094 13.84375 -21.136719 C 13.863281 -21.019531 13.867188 -20.648438 13.710938 -20.125 C 13.574219 -19.484375 13.496094 -18.851562 13.433594 -18.160156 C 13.246094 -16.023438 13.457031 -14.453125 14.144531 -13.335938 C 14.773438 -12.207031 15.890625 -11.472656 17.433594 -11.121094 C 18.347656 -10.847656 19.339844 -10.832031 20.359375 -11.007812 L 20.539062 -11.039062 C 21.5625 -11.21875 23.132812 -11.796875 25.199219 -12.710938 C 27.097656 -13.535156 29.316406 -14.664062 31.890625 -16.222656 C 34.414062 -17.710938 36.691406 -19.21875 38.773438 -20.753906 C 39.871094 -21.5625 40.859375 -22.289062 41.726562 -22.996094 C 42.535156 -23.691406 43.171875 -24.296875 43.570312 -24.863281 C 43.976562 -25.363281 44.34375 -25.738281 44.542969 -26.019531 C 43.601562 -25.734375 42.964844 -25.5 42.542969 -25.425781 C 41.964844 -25.203125 40.695312 -24.671875 38.6875 -23.769531 C 36.628906 -22.792969 34.53125 -21.6875 32.324219 -20.503906 C 27.789062 -18.109375 24.355469 -16.523438 22.015625 -15.75 C 19.683594 -14.914062 18.222656 -14.78125 17.628906 -15.359375 C 17.195312 -15.71875 17.019531 -16.367188 17.035156 -17.359375 C 17.007812 -18.222656 17.230469 -19.804688 17.636719 -22.105469 C 17.917969 -23.699219 17.96875 -24.820312 17.863281 -25.421875 C 17.640625 -26 17.199219 -26.417969 16.464844 -26.726562 Z M 5.683594 -20.035156 C 5.867188 -20.066406 6.035156 -20.15625 6.277344 -20.199219 C 6.394531 -20.21875 6.566406 -20.3125 6.683594 -20.332031 C 7.105469 -20.402344 7.367188 -20.324219 7.449219 -20.214844 C 7.480469 -20.035156 7.21875 -19.742188 6.683594 -19.28125 C 5.726562 -18.371094 4.082031 -17.160156 1.765625 -15.519531 C -0.207031 -14.066406 -1.554688 -13.277344 -2.15625 -13.171875 C -2.277344 -13.152344 -2.335938 -13.140625 -2.347656 -13.199219 C -2.46875 -13.179688 -2.597656 -13.21875 -2.617188 -13.339844 C -2.671875 -13.640625 -2.183594 -14.402344 -1.171875 -15.691406 C -0.355469 -16.699219 0.671875 -17.558594 1.910156 -18.265625 C 3.148438 -18.976562 4.40625 -19.566406 5.683594 -20.035156 Z M 5.683594 -20.035156"/></g><g id="i"><path d="M 16.640625 -43.578125 C 17.824219 -46.011719 18.132812 -48.167969 17.558594 -50.046875 C 17.007812 -51.808594 16.070312 -52.574219 14.871094 -52.363281 L 14.75 -52.34375 C 14.269531 -52.261719 13.808594 -52.058594 13.3125 -51.722656 C 12.753906 -51.378906 12.214844 -50.914062 11.695312 -50.332031 C 11.167969 -49.808594 10.550781 -49.082031 9.898438 -48.226562 C 9.25 -47.308594 8.617188 -46.335938 7.941406 -45.226562 C 6.570312 -43.136719 5.304688 -40.8125 4.019531 -38.238281 C 2.671875 -35.65625 1.613281 -33.183594 0.835938 -30.886719 C 0.503906 -29.960938 0.21875 -29.109375 -0.0390625 -28.445312 L -0.808594 -26.457031 L -2.070312 -26.238281 L -3.269531 -26.03125 C -4.839844 -25.820312 -5.550781 -25.265625 -5.453125 -24.351562 L -5.410156 -24.113281 C -5.265625 -23.273438 -4.863281 -22.722656 -4.058594 -22.367188 C -3.917969 -22.269531 -3.546875 -22.269531 -3.007812 -22.363281 C -2.527344 -22.449219 -2.15625 -22.449219 -1.792969 -22.511719 C -1.730469 -22.152344 -1.878906 -21.570312 -2.09375 -20.667969 C -2.367188 -19.753906 -2.613281 -18.660156 -2.84375 -17.507812 C -3.019531 -16.734375 -3.117188 -15.851562 -3.148438 -14.980469 C -3.222656 -13.976562 -3.1875 -13.054688 -3.082031 -12.085938 C -3 -10.179688 -2.757812 -8.429688 -2.359375 -6.828125 C -2.007812 -5.15625 -1.578125 -4.117188 -1.074219 -3.710938 C -0.15625 -2.695312 1.015625 -2.339844 2.386719 -2.640625 L 2.867188 -2.722656 C 4.410156 -3.113281 6.097656 -4.085938 7.832031 -5.5 C 9.027344 -6.449219 10.324219 -7.539062 11.828125 -8.851562 C 13.28125 -10.09375 15.574219 -12.222656 18.699219 -15.238281 C 20.773438 -17.203125 22.726562 -18.777344 24.480469 -20.074219 C 26.238281 -21.367188 27.445312 -22.253906 28.140625 -22.871094 C 28.3125 -22.960938 28.351562 -23.09375 28.328125 -23.210938 L 28.320312 -23.273438 C 28.238281 -23.382812 28.046875 -23.410156 27.796875 -23.429688 C 26.765625 -23.3125 25.136719 -22.722656 22.859375 -21.585938 C 20.582031 -20.449219 17.550781 -18.316406 13.820312 -15.195312 C 12.148438 -13.792969 10.730469 -12.683594 9.535156 -11.734375 C 8.339844 -10.785156 7.300781 -9.984375 6.535156 -9.417969 C 4.609375 -8.035156 3.46875 -7.464844 3.066406 -7.644531 C 2.667969 -7.820312 2.292969 -8.191406 1.949219 -8.75 C 1.707031 -9.078125 1.5625 -9.917969 1.511719 -11.269531 C 1.402344 -12.613281 1.464844 -14.046875 1.636719 -15.558594 C 1.679688 -16.371094 1.785156 -17.195312 1.890625 -18.015625 C 2.007812 -18.777344 2.191406 -19.492188 2.386719 -20.144531 C 2.820312 -21.578125 3.125 -22.683594 3.359375 -23.464844 C 4.410156 -23.832031 5.457031 -24.203125 6.640625 -24.53125 C 7.699219 -24.835938 8.75 -25.203125 9.738281 -25.5625 C 11.378906 -26.09375 12.71875 -26.570312 13.6875 -27.046875 C 14.605469 -27.453125 15.09375 -27.847656 15.042969 -28.148438 C 15.101562 -28.53125 14.449219 -28.726562 13.226562 -28.636719 C 11.945312 -28.539062 10.613281 -28.371094 9.230469 -28.132812 C 8.378906 -28.046875 7.417969 -27.878906 6.457031 -27.714844 L 4.175781 -27.320312 C 4.125 -27.621094 4.402344 -28.164062 5.078125 -28.898438 C 5.753906 -29.632812 6.75 -30.671875 8.136719 -31.964844 C 8.992188 -32.730469 9.917969 -33.816406 11.039062 -35.1875 C 12.175781 -36.496094 13.167969 -37.90625 14.160156 -39.316406 C 14.65625 -40.019531 15.144531 -40.785156 15.570312 -41.539062 C 16.007812 -42.234375 16.382812 -42.917969 16.640625 -43.578125 Z M 12.300781 -46.476562 C 12.710938 -46.980469 13.066406 -47.414062 13.4375 -47.789062 C 13.695312 -48.078125 13.914062 -48.242188 14.09375 -48.273438 L 14.15625 -48.28125 C 14.15625 -48.28125 14.226562 -48.234375 14.226562 -48.234375 L 14.234375 -48.171875 C 14.246094 -48.113281 14.316406 -48.0625 14.316406 -48.0625 C 14.398438 -47.582031 14.113281 -46.730469 13.53125 -45.453125 C 12.859375 -43.976562 11.90625 -42.328125 10.699219 -40.386719 C 9.625 -38.714844 8.574219 -37.296875 7.4375 -35.988281 C 6.625 -34.980469 6.023438 -34.503906 5.785156 -34.464844 C 5.664062 -34.441406 5.65625 -34.503906 5.632812 -34.621094 C 5.601562 -34.804688 5.898438 -35.597656 6.640625 -37.023438 C 7.394531 -38.390625 8.195312 -39.828125 9.097656 -41.40625 C 9.671875 -42.371094 10.308594 -43.347656 10.882812 -44.3125 C 11.46875 -45.21875 11.90625 -45.914062 12.300781 -46.476562 Z M 12.300781 -46.476562"/></g><g id="j"><path d="M 3.394531 -22.914062 C 2.578125 -23.332031 1.867188 -23.515625 1.265625 -23.414062 L 1.144531 -23.394531 C 0.546875 -23.289062 -0.0234375 -23.003906 -0.511719 -22.609375 C -1.488281 -21.824219 -2.273438 -20.636719 -2.804688 -19.058594 C -3.394531 -17.472656 -3.789062 -16.167969 -3.960938 -15.023438 C -4.117188 -14.132812 -4.082031 -13.210938 -3.933594 -12.371094 C -3.839844 -11.828125 -3.757812 -11.347656 -3.554688 -10.890625 C -3.066406 -9.488281 -2.417969 -8.613281 -1.535156 -8.144531 C -0.851562 -7.769531 -0.148438 -7.644531 0.632812 -7.777344 C 0.933594 -7.832031 1.28125 -7.953125 1.621094 -8.136719 C 2.722656 -8.574219 3.738281 -9.492188 4.691406 -10.769531 C 4.988281 -11.191406 5.335938 -11.6875 5.59375 -12.347656 C 5.871094 -12.890625 6.097656 -13.363281 6.285156 -13.707031 C 6.6875 -13.527344 7.78125 -13.65625 9.449219 -14.007812 C 11.121094 -14.359375 12.902344 -14.789062 14.722656 -15.351562 C 15.664062 -15.636719 16.542969 -15.914062 17.472656 -16.261719 C 18.351562 -16.539062 19.101562 -16.851562 19.789062 -17.15625 C 21.289062 -17.789062 22.769531 -18.539062 24.234375 -19.351562 C 25.703125 -20.160156 26.929688 -20.929688 27.808594 -21.578125 C 28.246094 -21.898438 28.578125 -22.140625 28.835938 -22.433594 C 29.054688 -22.597656 29.144531 -22.796875 29.121094 -22.917969 L 29.113281 -22.976562 C 28.972656 -23.078125 27.949219 -22.898438 25.929688 -22.425781 C 23.917969 -21.894531 21.5 -21.226562 18.796875 -20.386719 C 15.917969 -19.519531 13.386719 -18.769531 11.246094 -18.277344 C 9.007812 -17.640625 7.503906 -17.382812 6.753906 -17.4375 C 6.6875 -18.167969 6.53125 -19.066406 6.285156 -20.136719 C 5.980469 -21.199219 5.019531 -22.085938 3.394531 -22.914062 Z M 0.761719 -20.605469 L 0.941406 -20.636719 C 1.003906 -20.644531 1.050781 -20.71875 1.113281 -20.726562 L 1.472656 -20.789062 C 2.191406 -20.914062 2.914062 -20.667969 3.5 -20.152344 C 3.863281 -19.84375 4.117188 -19.453125 4.179688 -19.09375 C 4.242188 -18.734375 4.183594 -18.351562 4.003906 -17.949219 C 3.433594 -18.035156 2.820312 -18.363281 2.105469 -18.921875 C 1.402344 -19.417969 0.925781 -20.015625 0.761719 -20.605469 Z M -0.449219 -11.179688 C -0.851562 -11.355469 -1.078125 -11.9375 -1.234375 -12.835938 C -1.285156 -13.136719 -1.347656 -13.496094 -1.371094 -13.988281 C -1.449219 -15.519531 -1.21875 -16.675781 -0.730469 -17.4375 C -0.15625 -16.609375 0.511719 -15.984375 1.335938 -15.507812 C 2.101562 -15.023438 2.714844 -14.695312 3.105469 -14.578125 C 3.136719 -14.398438 3.058594 -14.136719 2.878906 -13.734375 C 2.640625 -13.324219 2.464844 -12.921875 2.265625 -12.640625 C 1.878906 -12.015625 1.460938 -11.570312 0.949219 -11.296875 C 0.730469 -11.136719 0.492188 -11.09375 0.3125 -11.0625 C 0.0117188 -11.011719 -0.238281 -11.03125 -0.449219 -11.179688 Z M -0.449219 -11.179688"/></g><clipPath id="a"><path d="M 115.386719 37.5 L 254 37.5 L 254 187.5 L 115.386719 187.5 Z M 115.386719 37.5"/></clipPath></defs><path fill="#FFF" d="M-37.5 -37.5H412.5V412.5H-37.5z"/><path fill="#FFF" d="M-37.5 -37.5H412.5V412.5H-37.5z"/><path d="M-37.5 -37.5H412.5V412.5H-37.5z"/><g clip-path="url(#a)"><path fill="#FFF" d="M 208.058594 37.839844 C 203.503906 38.828125 199.625 40.550781 196.222656 42.664062 C 191.171875 41.410156 186.101562 40.691406 181.152344 40.691406 C 161.160156 40.691406 144.921875 48.316406 133.75 60.214844 C 124.210938 57.945312 117.015625 57.929688 117.015625 57.929688 L 117.015625 69.285156 C 117.015625 69.285156 120.796875 69.40625 126.074219 70.28125 C 118.671875 82.386719 115.179688 96.964844 115.964844 111.949219 C 117.421875 139.675781 124.023438 158.304688 130.472656 170.078125 C 136.917969 181.851562 143.734375 187.152344 143.734375 187.152344 L 150.535156 178.0625 C 150.535156 178.0625 146.011719 174.847656 140.414062 164.625 C 134.816406 154.398438 128.660156 137.550781 127.28125 111.347656 C 126.535156 97.140625 130.265625 83.636719 137.710938 73.164062 C 144.757812 75.609375 152.347656 79.625 158.375 86.113281 C 145.964844 86.171875 135.796875 96.371094 135.796875 108.808594 C 135.796875 114.011719 136.375 120.046875 138.644531 125.519531 C 139.777344 128.253906 141.371094 130.910156 143.835938 133.011719 C 146.300781 135.117188 149.722656 136.484375 153.335938 136.484375 C 160.5625 136.484375 166.828125 132.414062 171.917969 127.371094 C 177.003906 122.328125 181.152344 116.082031 181.152344 108.808594 C 181.152344 103.886719 179.523438 99.351562 176.832031 95.617188 L 177.253906 95.460938 C 170.910156 78.519531 158.121094 69.261719 145.949219 64.160156 C 154.691406 56.679688 166.316406 52.042969 181.152344 52.042969 C 182.597656 52.042969 184.097656 52.226562 185.582031 52.363281 C 177.050781 63.515625 175.195312 76.589844 175.195312 76.589844 L 186.410156 78.242188 C 186.410156 78.242188 188.605469 64.050781 198.371094 55.203125 C 211.097656 59.644531 223.582031 68.839844 231.886719 83.109375 C 243.984375 103.894531 247.714844 135.488281 229.773438 179.027344 L 240.246094 183.351562 C 259.152344 137.480469 255.800781 101.660156 241.675781 77.390625 C 233.699219 63.679688 222.433594 53.753906 210.183594 47.707031 Z M 205.898438 66.777344 C 203.640625 66.726562 201.476562 67.246094 199.664062 68.042969 C 194.832031 70.160156 191.636719 73.746094 188.769531 76.414062 C 184.242188 80.628906 183.015625 86.917969 183.996094 92.65625 C 184.976562 98.390625 187.984375 104.011719 192.632812 108.667969 C 197.28125 113.320312 202.871094 116.296875 208.566406 117.246094 C 214.265625 118.199219 220.414062 116.96875 224.699219 112.679688 C 227.613281 109.765625 228.386719 106.054688 228.519531 102.523438 C 228.65625 98.992188 228.082031 95.332031 227.09375 91.65625 C 225.113281 84.308594 221.621094 76.957031 216.585938 71.910156 C 214.085938 69.410156 211.246094 67.667969 208.179688 67.035156 C 207.414062 66.875 206.652344 66.796875 205.898438 66.777344 Z M 205.191406 78.121094 C 205.441406 78.082031 205.648438 78.105469 205.878906 78.152344 C 206.339844 78.25 207.179688 78.570312 208.558594 79.949219 C 208.683594 80.078125 208.824219 80.304688 208.957031 80.449219 C 208.605469 80.484375 208.265625 80.546875 207.929688 80.644531 C 207.59375 80.742188 207.269531 80.867188 206.957031 81.023438 C 206.644531 81.183594 206.347656 81.367188 206.070312 81.578125 C 205.792969 81.789062 205.535156 82.023438 205.300781 82.285156 C 205.066406 82.542969 204.855469 82.820312 204.671875 83.121094 C 204.488281 83.417969 204.335938 83.730469 204.207031 84.054688 C 204.082031 84.382812 203.988281 84.71875 203.925781 85.0625 C 203.859375 85.40625 203.828125 85.753906 203.828125 86.101562 C 203.828125 86.476562 203.863281 86.84375 203.9375 87.210938 C 204.011719 87.578125 204.117188 87.929688 204.261719 88.277344 C 204.402344 88.621094 204.578125 88.949219 204.785156 89.257812 C 204.992188 89.566406 205.226562 89.855469 205.488281 90.117188 C 205.753906 90.382812 206.039062 90.617188 206.347656 90.824219 C 206.65625 91.03125 206.984375 91.207031 207.328125 91.347656 C 207.671875 91.492188 208.027344 91.597656 208.390625 91.671875 C 208.757812 91.742188 209.125 91.78125 209.496094 91.78125 C 210.445312 91.78125 211.335938 91.554688 212.171875 91.109375 C 213.007812 90.660156 213.6875 90.042969 214.214844 89.253906 C 214.972656 91.015625 215.664062 92.828125 216.140625 94.605469 C 216.90625 97.453125 217.253906 100.179688 217.183594 102.089844 C 217.109375 104.003906 216.542969 104.796875 216.683594 104.652344 C 215.429688 105.90625 213.433594 106.550781 210.429688 106.050781 C 207.421875 105.546875 203.753906 103.746094 200.652344 100.640625 C 197.550781 97.535156 195.6875 93.78125 195.167969 90.75 C 194.652344 87.714844 195.28125 85.851562 196.488281 84.730469 C 199.617188 81.816406 202.515625 79.1875 204.214844 78.441406 C 204.640625 78.257812 204.9375 78.15625 205.191406 78.121094 Z M 158.472656 97.457031 C 164.804688 97.457031 169.8125 102.472656 169.8125 108.808594 C 169.8125 110.945312 167.578125 115.695312 163.945312 119.296875 C 160.308594 122.902344 155.503906 125.128906 153.335938 125.128906 C 152.253906 125.128906 151.84375 124.925781 151.199219 124.375 C 150.554688 123.828125 149.777344 122.75 149.117188 121.160156 C 147.898438 118.21875 147.304688 113.761719 147.214844 109.773438 C 147.328125 110.433594 147.550781 111.054688 147.882812 111.636719 C 148.214844 112.214844 148.636719 112.722656 149.148438 113.152344 C 149.660156 113.585938 150.230469 113.914062 150.859375 114.144531 C 151.488281 114.375 152.136719 114.488281 152.804688 114.488281 C 153.175781 114.488281 153.546875 114.449219 153.910156 114.378906 C 154.277344 114.304688 154.628906 114.199219 154.972656 114.054688 C 155.320312 113.910156 155.644531 113.738281 155.953125 113.53125 C 156.265625 113.324219 156.550781 113.085938 156.8125 112.824219 C 157.078125 112.5625 157.3125 112.273438 157.519531 111.964844 C 157.726562 111.652344 157.898438 111.328125 158.042969 110.984375 C 158.183594 110.636719 158.292969 110.28125 158.367188 109.917969 C 158.4375 109.550781 158.472656 109.183594 158.472656 108.808594 C 158.472656 108.4375 158.4375 108.066406 158.367188 107.703125 C 158.292969 107.335938 158.183594 106.980469 158.042969 106.636719 C 157.898438 106.292969 157.726562 105.964844 157.519531 105.65625 C 157.3125 105.347656 157.078125 105.058594 156.8125 104.796875 C 156.550781 104.53125 156.265625 104.296875 155.953125 104.089844 C 155.644531 103.882812 155.320312 103.707031 154.972656 103.566406 C 154.628906 103.421875 154.277344 103.316406 153.910156 103.242188 C 153.546875 103.167969 153.175781 103.132812 152.804688 103.132812 C 152.152344 103.132812 151.519531 103.242188 150.902344 103.460938 C 150.289062 103.679688 149.726562 103.992188 149.222656 104.40625 C 148.714844 104.816406 148.292969 105.300781 147.953125 105.859375 C 147.613281 106.417969 147.378906 107.015625 147.246094 107.65625 C 147.820312 101.882812 152.539062 97.457031 158.472656 97.457031 Z M 199.078125 125.152344 C 196.378906 124.914062 193.535156 125.179688 190.695312 126.128906 C 179.917969 129.726562 174.984375 139.269531 172.183594 147.738281 C 169.378906 156.207031 167.652344 164.449219 165.171875 167.992188 L 158.917969 176.929688 L 169.8125 176.929688 C 169.8125 176.929688 187.328125 177.347656 200.695312 170.65625 L 200.839844 170.589844 L 200.972656 170.511719 C 209.324219 165.734375 215.230469 159.867188 222.863281 157.515625 L 228.976562 155.632812 L 226.371094 149.777344 C 226.371094 149.777344 223.226562 142.585938 217.515625 135.960938 C 214.660156 132.652344 211.101562 129.367188 206.585938 127.214844 C 204.328125 126.136719 201.777344 125.390625 199.078125 125.152344 Z M 198.136719 136.382812 C 199.335938 136.492188 200.484375 136.875 201.714844 137.460938 C 204.171875 138.632812 206.738281 140.847656 208.933594 143.390625 C 211.515625 146.386719 211.902344 147.679688 213.109375 149.878906 C 206.183594 153.390625 200.464844 157.652344 195.511719 160.519531 C 190.667969 162.921875 184.195312 164.160156 178.824219 164.824219 C 179.144531 163.867188 179.386719 162.976562 179.679688 162.019531 C 181.109375 160.785156 183.332031 158.941406 186.722656 156.617188 C 191.773438 153.152344 198.328125 149.683594 203.429688 149.167969 L 202.855469 143.511719 C 195.871094 144.222656 188.933594 148.230469 183.519531 151.941406 C 183.117188 152.21875 182.910156 152.417969 182.523438 152.695312 C 182.664062 152.25 182.800781 151.742188 182.945312 151.308594 C 185.367188 143.988281 188.054688 138.984375 194.285156 136.90625 C 195.695312 136.433594 196.941406 136.273438 198.136719 136.382812 Z M 198.136719 136.382812"/></g><g fill="#DC3C4D" fill-opacity=".302"><use x="86.104" y="252.591" xmlns:xlink="http://www.w3.org/1999/xlink" xlink:href="#b" xlink:type="simple" xlink:actuate="onLoad" xlink:show="embed"/></g><g fill="#DC3C4D" fill-opacity=".302"><use x="152.433" y="243.257" xmlns:xlink="http://www.w3.org/1999/xlink" xlink:href="#c" xlink:type="simple" xlink:actuate="onLoad" xlink:show="embed"/></g><g fill="#DC3C4D" fill-opacity=".302"><use x="186.784" y="238.424" xmlns:xlink="http://www.w3.org/1999/xlink" xlink:href="#b" xlink:type="simple" xlink:actuate="onLoad" xlink:show="embed"/></g><g fill="#DC3C4D" fill-opacity=".302"><use x="253.112" y="229.09" xmlns:xlink="http://www.w3.org/1999/xlink" xlink:href="#c" xlink:type="simple" xlink:actuate="onLoad" xlink:show="embed"/></g><g fill="#DC3C4D" fill-opacity=".502"><use x="87.848" y="251.02" xmlns:xlink="http://www.w3.org/1999/xlink" xlink:href="#b" xlink:type="simple" xlink:actuate="onLoad" xlink:show="embed"/></g><g fill="#DC3C4D" fill-opacity=".502"><use x="154.177" y="241.687" xmlns:xlink="http://www.w3.org/1999/xlink" xlink:href="#c" xlink:type="simple" xlink:actuate="onLoad" xlink:show="embed"/></g><g fill="#DC3C4D" fill-opacity=".502"><use x="188.528" y="236.853" xmlns:xlink="http://www.w3.org/1999/xlink" xlink:href="#b" xlink:type="simple" xlink:actuate="onLoad" xlink:show="embed"/></g><g fill="#DC3C4D" fill-opacity=".502"><use x="254.856" y="227.519" xmlns:xlink="http://www.w3.org/1999/xlink" xlink:href="#c" xlink:type="simple" xlink:actuate="onLoad" xlink:show="embed"/></g><g fill="#FF0707"><use x="89.592" y="249.45" xmlns:xlink="http://www.w3.org/1999/xlink" xlink:href="#b" xlink:type="simple" xlink:actuate="onLoad" xlink:show="embed"/></g><g fill="#FF0707"><use x="155.92" y="240.116" xmlns:xlink="http://www.w3.org/1999/xlink" xlink:href="#c" xlink:type="simple" xlink:actuate="onLoad" xlink:show="embed"/></g><g fill="#FF0707"><use x="190.271" y="235.282" xmlns:xlink="http://www.w3.org/1999/xlink" xlink:href="#b" xlink:type="simple" xlink:actuate="onLoad" xlink:show="embed"/></g><g fill="#FF0707"><use x="256.6" y="225.948" xmlns:xlink="http://www.w3.org/1999/xlink" xlink:href="#c" xlink:type="simple" xlink:actuate="onLoad" xlink:show="embed"/></g><g fill="#DC3C4D" fill-opacity=".302"><use x="51.444" y="319.519" xmlns:xlink="http://www.w3.org/1999/xlink" xlink:href="#d" xlink:type="simple" xlink:actuate="onLoad" xlink:show="embed"/></g><g fill="#DC3C4D" fill-opacity=".302"><use x="80.326" y="314.518" xmlns:xlink="http://www.w3.org/1999/xlink" xlink:href="#e" xlink:type="simple" xlink:actuate="onLoad" xlink:show="embed"/></g><g fill="#DC3C4D" fill-opacity=".302"><use x="109.869" y="309.403" xmlns:xlink="http://www.w3.org/1999/xlink" xlink:href="#f" xlink:type="simple" xlink:actuate="onLoad" xlink:show="embed"/></g><g fill="#DC3C4D" fill-opacity=".302"><use x="149.139" y="302.604" xmlns:xlink="http://www.w3.org/1999/xlink" xlink:href="#g" xlink:type="simple" xlink:actuate="onLoad" xlink:show="embed"/></g><g fill="#DC3C4D" fill-opacity=".302"><use x="183.606" y="296.637" xmlns:xlink="http://www.w3.org/1999/xlink" xlink:href="#h" xlink:type="simple" xlink:actuate="onLoad" xlink:show="embed"/></g><g fill="#DC3C4D" fill-opacity=".302"><use x="229.121" y="288.756" xmlns:xlink="http://www.w3.org/1999/xlink" xlink:href="#i" xlink:type="simple" xlink:actuate="onLoad" xlink:show="embed"/></g><g fill="#DC3C4D" fill-opacity=".302"><use x="258.664" y="283.642" xmlns:xlink="http://www.w3.org/1999/xlink" xlink:href="#j" xlink:type="simple" xlink:actuate="onLoad" xlink:show="embed"/></g><g fill="#DC3C4D" fill-opacity=".302"><use x="289.227" y="278.35" xmlns:xlink="http://www.w3.org/1999/xlink" xlink:href="#g" xlink:type="simple" xlink:actuate="onLoad" xlink:show="embed"/></g><g fill="#DC3C4D" fill-opacity=".502"><use x="52.907" y="318.114" xmlns:xlink="http://www.w3.org/1999/xlink" xlink:href="#d" xlink:type="simple" xlink:actuate="onLoad" xlink:show="embed"/></g><g fill="#DC3C4D" fill-opacity=".502"><use x="81.789" y="313.114" xmlns:xlink="http://www.w3.org/1999/xlink" xlink:href="#e" xlink:type="simple" xlink:actuate="onLoad" xlink:show="embed"/></g><g fill="#DC3C4D" fill-opacity=".502"><use x="111.332" y="307.999" xmlns:xlink="http://www.w3.org/1999/xlink" xlink:href="#f" xlink:type="simple" xlink:actuate="onLoad" xlink:show="embed"/></g><g fill="#DC3C4D" fill-opacity=".502"><use x="150.603" y="301.2" xmlns:xlink="http://www.w3.org/1999/xlink" xlink:href="#g" xlink:type="simple" xlink:actuate="onLoad" xlink:show="embed"/></g><g fill="#DC3C4D" fill-opacity=".502"><use x="185.069" y="295.232" xmlns:xlink="http://www.w3.org/1999/xlink" xlink:href="#h" xlink:type="simple" xlink:actuate="onLoad" xlink:show="embed"/></g><g fill="#DC3C4D" fill-opacity=".502"><use x="230.584" y="287.352" xmlns:xlink="http://www.w3.org/1999/xlink" xlink:href="#i" xlink:type="simple" xlink:actuate="onLoad" xlink:show="embed"/></g><g fill="#DC3C4D" fill-opacity=".502"><use x="260.127" y="282.237" xmlns:xlink="http://www.w3.org/1999/xlink" xlink:href="#j" xlink:type="simple" xlink:actuate="onLoad" xlink:show="embed"/></g><g fill="#DC3C4D" fill-opacity=".502"><use x="290.691" y="276.945" xmlns:xlink="http://www.w3.org/1999/xlink" xlink:href="#g" xlink:type="simple" xlink:actuate="onLoad" xlink:show="embed"/></g><g fill="#FF0707"><use x="54.37" y="316.71" xmlns:xlink="http://www.w3.org/1999/xlink" xlink:href="#d" xlink:type="simple" xlink:actuate="onLoad" xlink:show="embed"/></g><g fill="#FF0707"><use x="83.253" y="311.709" xmlns:xlink="http://www.w3.org/1999/xlink" xlink:href="#e" xlink:type="simple" xlink:actuate="onLoad" xlink:show="embed"/></g><g fill="#FF0707"><use x="112.796" y="306.594" xmlns:xlink="http://www.w3.org/1999/xlink" xlink:href="#f" xlink:type="simple" xlink:actuate="onLoad" xlink:show="embed"/></g><g fill="#FF0707"><use x="152.066" y="299.795" xmlns:xlink="http://www.w3.org/1999/xlink" xlink:href="#g" xlink:type="simple" xlink:actuate="onLoad" xlink:show="embed"/></g><g fill="#FF0707"><use x="186.533" y="293.828" xmlns:xlink="http://www.w3.org/1999/xlink" xlink:href="#h" xlink:type="simple" xlink:actuate="onLoad" xlink:show="embed"/></g><g fill="#FF0707"><use x="232.048" y="285.947" xmlns:xlink="http://www.w3.org/1999/xlink" xlink:href="#i" xlink:type="simple" xlink:actuate="onLoad" xlink:show="embed"/></g><g fill="#FF0707"><use x="261.591" y="280.832" xmlns:xlink="http://www.w3.org/1999/xlink" xlink:href="#j" xlink:type="simple" xlink:actuate="onLoad" xlink:show="embed"/></g><g fill="#FF0707"><use x="292.154" y="275.541" xmlns:xlink="http://www.w3.org/1999/xlink" xlink:href="#g" xlink:type="simple" xlink:actuate="onLoad" xlink:show="embed"/></g></svg>